<svg width="51" height="51" viewBox="0 0 51 51" fill="none" xmlns="http://www.w3.org/2000/svg">
<g clip-path="url(#clip0_1_3)">
<path d="M38.3898 5.89696C38.0655 5.67698 37.6239 5.7275 37.3583 6.0208C37.0943 6.31247 37.0829 6.75568 37.3322 7.06201C39.7569 9.9999 41.0946 13.7216 41.0946 17.541C41.0946 19.9183 40.9806 22.6037 39.5972 24.4058C37.3388 27.347 34.9761 27.9629 33.389 27.9629C31.3864 27.9629 29.8661 27.0097 29.1752 26.195C24.4629 20.6483 33.0207 11.0379 33.1087 10.9433C33.3059 10.7217 33.3662 10.4089 33.2619 10.1319L32.4439 7.95169C32.3461 7.69913 32.1327 7.51011 31.8671 7.45308C31.6047 7.39931 31.3294 7.47915 31.1404 7.66817L28.4827 10.3258L30.0079 4.74494C30.0828 4.47119 30.0046 4.17626 29.8042 3.97421L26.0646 0.234637C25.755 -0.0749572 25.2515 -0.0749572 24.9419 0.234637L21.2024 3.97421C21.0003 4.17626 20.9221 4.46957 20.9987 4.74494L22.5206 10.3274L19.8646 7.66979C19.674 7.48078 19.4002 7.39931 19.1362 7.45471C18.8706 7.51174 18.6556 7.6975 18.5594 7.95332L17.7398 10.1335C17.6355 10.4105 17.6958 10.7217 17.8946 10.945C17.981 11.0427 26.5388 20.65 21.8297 26.1966C21.1372 27.0113 19.6186 27.9645 17.616 27.9645C16.0289 27.9645 13.6662 27.3486 11.4078 24.4075C10.0244 22.6069 9.90869 19.92 9.90869 17.5426C9.90869 13.7232 11.2448 10.0015 13.6694 7.06364C13.9204 6.75731 13.909 6.31247 13.645 6.02243C13.3794 5.72913 12.9378 5.67698 12.6119 5.89696C5.78945 10.4969 1.71747 18.1471 1.71747 26.3644C1.71747 39.6917 12.1524 50.5128 25.4715 51C25.4813 51 25.4911 51 25.5008 51C25.5106 51 25.5204 51 25.5302 51C38.8493 50.5128 49.2826 39.6917 49.2826 26.3644C49.2826 18.1471 45.209 10.4969 38.3898 5.89696Z" fill="white"/>
</g>
<defs>
<clipPath id="clip0_1_3">
<rect width="51" height="51" fill="white"/>
</clipPath>
</defs>
</svg>
